<?xml version="1.0" encoding="UTF-8"?>
<svg width="3129px" height="4592px" viewBox="0 0 3129 4592" version="1.1" xmlns="http://www.w3.org/2000/svg" xmlns:xlink="http://www.w3.org/1999/xlink">
    <!-- Generator: Sketch 51.3 (57544) - http://www.bohemiancoding.com/sketch -->
    <title>blob-4</title>
    <desc>Created with Sketch.</desc>
    <defs>
        <linearGradient x1="50%" y1="0%" x2="48.4512267%" y2="72.0171636%" id="linearGradient-1">
            <stop stop-color="#1B1464" offset="0%"></stop>
            <stop stop-color="#0E055B" offset="70.0649869%"></stop>
            <stop stop-color="#0F0F36" offset="100%"></stop>
        </linearGradient>
        <linearGradient x1="22.8027574%" y1="82.2084025%" x2="77.1713375%" y2="7.45372261%" id="linearGradient-2">
            <stop stop-color="#DEEAFF" offset="0%"></stop>
            <stop stop-color="#FFFFFF" offset="100%"></stop>
        </linearGradient>
        <linearGradient x1="33.7032701%" y1="92.532341%" x2="90.150751%" y2="18.8138307%" id="linearGradient-3">
            <stop stop-color="#2E3191" offset="0%"></stop>
            <stop stop-color="#2C3594" offset="17%"></stop>
            <stop stop-color="#27439E" offset="35%"></stop>
            <stop stop-color="#1F59AF" offset="54%"></stop>
            <stop stop-color="#1477C6" offset="74%"></stop>
            <stop stop-color="#059FE3" offset="94%"></stop>
            <stop stop-color="#00ADEE" offset="100%"></stop>
        </linearGradient>
        <linearGradient x1="54.6394207%" y1="50%" x2="161.418014%" y2="311.034565%" id="linearGradient-4">
            <stop stop-color="#1B1464" offset="0%"></stop>
            <stop stop-color="#673EE0" offset="100%"></stop>
        </linearGradient>
        <linearGradient x1="44.108178%" y1="106.087055%" x2="0%" y2="35.0871122%" id="linearGradient-5">
            <stop stop-color="#2057AD" offset="0%"></stop>
            <stop stop-color="#1B1464" offset="100%"></stop>
        </linearGradient>
        <linearGradient x1="113.370609%" y1="-20.6644415%" x2="-110.127782%" y2="194.42535%" id="linearGradient-6">
            <stop stop-color="#2E3191" offset="0%"></stop>
            <stop stop-color="#00ADEE" offset="100%"></stop>
        </linearGradient>
        <linearGradient x1="50%" y1="0%" x2="18.698123%" y2="100%" id="linearGradient-7">
            <stop stop-color="#1B1464" offset="0%"></stop>
            <stop stop-color="#251880" offset="100%"></stop>
        </linearGradient>
        <linearGradient x1="-60.3352978%" y1="-51.0653203%" x2="99.3433559%" y2="84.1592043%" id="linearGradient-8">
            <stop stop-color="#0995DC" offset="0%"></stop>
            <stop stop-color="#3B2E91" offset="100%"></stop>
        </linearGradient>
        <linearGradient x1="40.8455902%" y1="82.2039453%" x2="52.5268605%" y2="17.427318%" id="linearGradient-9">
            <stop stop-color="#251880" offset="0%"></stop>
            <stop stop-color="#1B1464" offset="100%"></stop>
        </linearGradient>
        <linearGradient x1="72.5299491%" y1="57.6172781%" x2="27.3753582%" y2="18.9611809%" id="linearGradient-10">
            <stop stop-color="#1A1D75" offset="0%"></stop>
            <stop stop-color="#322189" offset="100%"></stop>
        </linearGradient>
        <linearGradient x1="34.6892843%" y1="100%" x2="34.6892843%" y2="-16.7054514%" id="linearGradient-11">
            <stop stop-color="#10105E" offset="0%"></stop>
            <stop stop-color="#271A77" offset="100%"></stop>
        </linearGradient>
    </defs>
    <g id="Page-1" stroke="none" stroke-width="1" fill="none" fill-rule="evenodd">
        <path d="M2919.98391,4349.80841 C2989.90647,4239.31677 3021.70261,4078.00936 3024.5884,3855.5888 C3025.80943,3761.47807 3021.96135,3656.69435 3013.41628,3531.52977 C3007.04656,3438.22881 3001.6476,3374.95743 2984.09697,3179.80886 C2975.85124,3088.12313 2971.19065,3034.82561 2966.49591,2977.13309 C2947.05509,2738.22981 2939.53017,2560.04942 2945.1439,2395.86344 C2951.98527,2195.77283 2979.08561,2029.70557 3031.15237,1892.52454 C3074.60178,1778.04772 3084.79007,1703.92643 3064.51722,1672.91679 C3046.1625,1644.84116 3002.95364,1653.92816 2944.59373,1696.50595 C2886.40054,1738.9621 2817.67122,1811.45496 2752.4274,1900.18614 C2681.23755,1997.00388 2617.93005,2107.71116 2570.88891,2221.01016 C2506.27406,2376.63563 2368.93097,2462.82717 2170.88676,2484.36214 C1994.65953,2503.52477 1773.70722,2470.81758 1528.20173,2394.31921 C1307.67942,2325.60548 1074.71565,2223.47597 865.327551,2106.11036 C665.033485,1993.84212 499.493615,1874.78864 404.725793,1774.63128 C242.087724,1602.74381 124.343406,1545.23752 58.7210112,1595.75631 C-1.72484333,1642.28998 -14.8829968,1779.6386 19.6090428,1977.56767 C54.2508962,2176.35643 134.484979,2422.31155 247.419489,2670.61406 C370.675816,2941.61055 526.476734,3202.43374 702.125604,3424.20557 C1069.84017,3888.47687 1529.56008,4270.82722 1946.8279,4461.2637 C2159.28751,4558.22795 2354.03213,4602.38771 2518.13267,4588.49322 C2691.72077,4573.79542 2828.36637,4494.58247 2919.98391,4349.80841 Z" id="Rectangle" stroke="#979797" fill="url(#linearGradient-1)"></path>
        <path d="M2934.39,793.29 C2988.57,932.86 2530.96743,1144.62539 2452.51743,1313.58539 C2392.16743,1443.58539 1502.92938,1925.83588 903.451827,1671.34494 C303.97427,1416.85401 281.376414,236.279923 580.296962,76.7894369 C879.217511,-82.7010494 922.7,498.78 1081.39,713.29 C1191.86,862.63 1669.89449,1298.88792 2004.09,1018.86 C2168.43898,881.149284 2148.29,757.34 2253.39,679.29 C2389.39,578.29 2835.39,538.29 2934.39,793.29 Z" id="Shape" fill="url(#linearGradient-2)" fill-rule="nonzero"></path>
        <path d="M2884.43,839.12 C2820.9,658.42 2367.43,668.29 2221.13,796.88 C2122.45,883.64 2122.45,988.577365 1995.39,1075.29 C1631.98131,1323.2998 1085.26105,942.364414 956.750154,566.864832 C874.701864,327.125633 781.971737,20.9671848 531.39,188.714817 C280.808263,356.462448 402.63,1209.16 531.39,1632.29 C596.01,1844.65 1262.611,3138.32548 2151.871,3140.86548 C2500.871,3141.86548 2640.68827,2907.25917 2674.63779,2391.6602 C2708.5873,1876.06123 2357.76467,1289.63 2483.03,1289.63 C2531.74334,1289.63 2934.63,981.88 2884.43,839.12 Z" id="Shape" fill="url(#linearGradient-3)" fill-rule="nonzero"></path>
        <path d="M2743.14559,877.605487 C2909.91276,1086.8448 2601.98106,1157.92233 2571.31875,1293.4811 C2534.28124,1457.22479 2701.28292,2025.10689 2676.28292,2380.10689 C2568.80847,3906.31192 1410.7473,3151.78544 792.178097,2183.79417 C394.9643,1562.19924 356.075868,746.29 825.39,746.29 C996.39,746.29 1397.53757,1426.66856 2025.21692,1131.13061 C2231.49611,1034.00565 2202.81721,873.416842 2391.60661,813.491034 C2513.1069,774.924234 2676.28292,793.714277 2743.14559,877.605487 Z" id="Shape" fill="url(#linearGradient-4)" fill-rule="nonzero"></path>
        <path d="M2225.71424,1162.81057 C2377.22621,1148.83417 2375.22482,1328.61634 2421.91109,1522.20977 C2924.37382,3605.76627 1715.81295,3034.19836 1480.81498,2499.3015 C1319.56249,2132.24382 2113.49232,2078.60437 2053.88063,1496.55983 C2037.82235,1339.71003 2074.20228,1176.78696 2225.71424,1162.81057 Z" id="Shape" fill="url(#linearGradient-5)" fill-rule="nonzero" opacity="0.415736607"></path>
        <path d="M2212.27021,1432.41242 C2292.23979,1386.85373 2343.48337,1496.62856 2344.33228,1572.15005 C2345.42003,1669.06244 2639.51263,2877.27922 2103.46633,2584.47043 C1567.42003,2291.66164 2100.06312,2047.94894 2145.56253,1890.92571 C2199.54704,1704.6284 2087.88613,1503.27406 2212.27021,1432.41242 Z" id="Shape" fill="url(#linearGradient-6)" fill-rule="nonzero" opacity="0.625055804"></path>
        <path d="M2267.39474,1843.55331 C2303.89919,1838.03074 2348.71701,2342.51445 2261.09403,2515.73045 C2213.61818,2609.58227 1988.19657,2375.76121 2015.11324,2314.64768 C2042.02991,2253.53416 2113.03331,2300.42078 2176.52844,2210.51799 C2234.88002,2127.89797 2213.76862,1851.66613 2267.39474,1843.55331 Z" id="Shape" fill="url(#linearGradient-7)" fill-rule="nonzero"></path>
        <path d="M1662.66093,1782.75427 C1575.8766,2428.97144 945.353464,2192.80046 709.053857,1783.31729 C499.644546,1420.55616 642.528222,715.039721 919.776246,956.141255 C1141.2362,1148.72814 1712.70915,1410.12873 1662.66093,1782.75427 Z" id="Shape" fill="url(#linearGradient-8)" fill-rule="nonzero" opacity="0.725948661"></path>
        <path d="M1309.51428,1960.05928 C1400.44338,1641.74923 874.008927,1147.00772 732.652999,1399.18824 C591.297072,1651.36876 1218.58518,2278.36932 1309.51428,1960.05928 Z" id="Shape" fill="url(#linearGradient-9)" fill-rule="nonzero"></path>
        <path d="M2075.12,3403.65 C1975.3,3457.4 1946.12,3574.75 1981.76,3658.75 C2027.44,3766.52 2119.63,3755.16 2216.45,3630.06 C2265.29,3567 2280.34,3293.15 2075.12,3403.65 Z" id="Shape" fill="url(#linearGradient-10)" fill-rule="nonzero" opacity="0.765178571"></path>
        <path d="M1895.76121,3808.7018 C1861.98121,3826.4918 1851.93121,3864.9718 1863.76121,3892.4118 C1878.96121,3927.6118 1945.08121,3911.1518 1977.98121,3870.0018 C1994.63121,3849.2418 1965.20121,3772.1318 1895.76121,3808.7018 Z" id="Shape" fill="url(#linearGradient-11)" fill-rule="nonzero" opacity="0.6359375"></path>
    </g>
</svg>